<svg width="192" height="20" viewBox="0 0 192 20" fill="none" xmlns="http://www.w3.org/2000/svg">
<g clip-path="url(#clip0_211_159)">
<path d="M0.0322266 19.6002H2.52234V10.7372H11.6924V8.89592H2.52234V2.13456H12.4854V0.291992H0.0322266V19.6002Z" fill="white" stroke="white" stroke-width="0.5" stroke-miterlimit="10"/>
<path d="M19.2212 0.291992H16.7583V19.6002H19.2212V0.291992Z" fill="white" stroke="white" stroke-width="0.5" stroke-miterlimit="10"/>
<path d="M24.7383 19.6002H27.2284V10.7372H36.3985V8.89592H27.2284V2.13456H37.1914V0.291992H24.7383V19.6002Z" fill="white" stroke="white" stroke-width="0.5" stroke-miterlimit="10"/>
<path d="M39.7656 2.13456H46.0769V19.6002H48.5386V2.13456H54.7658V0.291992H39.7656V2.13456Z" fill="white" stroke="white" stroke-width="0.5" stroke-miterlimit="10"/>
<path d="M64.6975 9.18395L59.3486 0.291992H56.5752L63.4531 11.3987V19.6002H65.8863V11.3132L72.7072 0.291992H70.0477L64.6975 9.18395Z" fill="white" stroke="white" stroke-width="0.5" stroke-miterlimit="10"/>
<path d="M76.2168 19.6002H78.7069V10.7372H87.877V8.89592H78.7069V2.13456H88.6687V0.291992H76.2168V19.6002Z" fill="white" stroke="white" stroke-width="0.5" stroke-miterlimit="10"/>
<path d="M100.752 0.0327148C95.4597 0.0327148 92.0913 3.83096 92.0913 9.95972C92.0913 16.0885 95.4546 19.8591 100.752 19.8591C106.073 19.8591 109.419 16.0898 109.419 9.95972C109.419 3.82965 106.073 0.0327148 100.752 0.0327148ZM100.752 18.0507C96.9603 18.0507 94.7237 15.0574 94.7237 9.96367C94.7237 4.84234 96.9603 1.87792 100.725 1.87792C104.517 1.87792 106.804 4.84234 106.804 9.96367C106.809 15.0534 104.544 18.0468 100.752 18.0468V18.0507Z" fill="white" stroke="white" stroke-width="0.5" stroke-miterlimit="10"/>
<path d="M144.278 9.78762C146.571 9.24181 147.986 7.57285 147.986 5.32783C147.986 1.8176 145.467 0.291992 141.476 0.291992H133.439V19.6002H135.929V10.7714H141.138C143.318 10.7714 144.223 11.404 144.534 13.1019C144.903 15.4613 145.412 18.4547 146.006 19.6055H148.865C148.186 18.6559 147.701 16.9869 146.911 12.6416C146.627 11.112 145.891 10.1335 144.278 9.78762ZM141.278 8.92486H135.929V2.13325H141.306C143.882 2.13325 145.411 3.05388 145.411 5.3857C145.407 7.803 143.882 8.93012 141.278 8.93012V8.92486Z" fill="white" stroke="white" stroke-width="0.5" stroke-miterlimit="10"/>
<path d="M164.422 12.8388C163.847 14.6244 163.365 16.4397 162.979 18.2771C162.64 16.5214 161.989 14.3053 161.537 12.8099L157.32 0.291992H153.272V19.6002H155.626V1.93203L161.428 19.6002H164.57L170.343 1.93203V19.6002H172.692V0.291992H168.645L164.422 12.8388Z" fill="white" stroke="white" stroke-width="0.5" stroke-miterlimit="10"/>
<path d="M185.03 8.29075C181.804 7.34119 180.728 6.67965 180.728 4.6661C180.728 2.93927 182.314 1.84635 184.945 1.84635C187.92 1.84635 189.7 3.57187 189.87 6.39294L191.964 5.09748C191.596 2.16199 189.021 0.0327148 185.2 0.0327148C180.899 0.0327148 178.323 2.07519 178.323 5.09748C178.323 8.20526 180.02 9.58621 184.403 10.7659C187.799 11.6866 189.157 12.5796 189.157 14.651C189.157 16.8671 187.658 18.1033 184.827 18.1033C181.657 18.1033 179.733 16.2042 179.676 12.8426L177.497 14.2249C177.723 17.6772 180.384 19.8644 184.685 19.8644C189.073 19.8644 191.62 17.6194 191.62 14.2525C191.625 10.6226 189.333 9.52834 185.03 8.29075Z" fill="white" stroke="white" stroke-width="0.5" stroke-miterlimit="10"/>
<path d="M129.203 0.24219H123.609C123.077 0.244037 122.564 0.44559 122.169 0.808199C121.774 1.17081 121.525 1.66894 121.469 2.20707H120.67C120.614 1.66894 120.365 1.17081 119.97 0.808199C119.575 0.44559 119.062 0.244037 118.53 0.24219H112.939C112.844 0.24219 112.754 0.280294 112.687 0.348122C112.62 0.415949 112.583 0.507943 112.583 0.603866C112.583 0.699788 112.62 0.791782 112.687 0.859609C112.754 0.927437 112.844 0.965541 112.939 0.965541C113.239 0.965888 113.526 1.08706 113.738 1.30252C113.95 1.51797 114.07 1.81014 114.071 2.11501V14.7408C114.072 16.1277 114.614 17.4574 115.579 18.4382C116.543 19.419 117.851 19.9708 119.215 19.9726C119.618 19.973 120.019 19.9253 120.41 19.8305C120.489 19.8121 120.558 19.7671 120.608 19.7031C120.658 19.6391 120.685 19.5597 120.685 19.4781V19.3939H121.461V19.4781C121.46 19.5596 121.487 19.6389 121.536 19.703C121.586 19.767 121.656 19.812 121.734 19.8305C122.125 19.9253 122.526 19.9729 122.929 19.9726C124.294 19.9708 125.602 19.4183 126.567 18.4364C127.532 17.4544 128.073 16.1233 128.073 14.7355V2.10975C128.074 1.805 128.193 1.51283 128.405 1.29734C128.617 1.08184 128.904 0.960627 129.204 0.960279C129.298 0.960279 129.389 0.922175 129.456 0.854348C129.522 0.78652 129.56 0.694526 129.56 0.598604C129.558 0.503368 129.52 0.412524 129.453 0.345794C129.386 0.279063 129.296 0.241834 129.203 0.24219ZM119.969 19.1808C119.719 19.2245 119.466 19.2465 119.213 19.2466C118.037 19.2449 116.91 18.7693 116.079 17.9241C115.248 17.0789 114.781 15.9332 114.779 14.7381V2.11238C114.779 1.696 114.643 1.29151 114.391 0.962912H118.531C118.913 0.96326 119.279 1.11759 119.548 1.39203C119.818 1.66647 119.97 2.03859 119.971 2.42671L119.969 19.1808ZM121.458 18.6679H120.682V2.93043H121.458V18.6679ZM127.359 2.11764V14.7434C127.358 15.9386 126.891 17.0845 126.06 17.9297C125.229 18.775 124.102 19.2505 122.926 19.2519C122.673 19.2517 122.42 19.2297 122.17 19.1861V2.42934C122.17 2.04133 122.322 1.66941 122.592 1.39505C122.862 1.12068 123.228 0.966236 123.609 0.965541H127.749C127.496 1.29372 127.359 1.69839 127.359 2.11501V2.11764Z" fill="white" stroke="white" stroke-width="0.5" stroke-miterlimit="10"/>
</g>
<defs>
<clipPath id="clip0_211_159">
<rect width="192" height="20" fill="white"/>
</clipPath>
</defs>
</svg>
