<?xml version="1.0" standalone="no"?>
<!DOCTYPE svg PUBLIC "-//W3C//DTD SVG 20010904//EN"
 "http://www.w3.org/TR/2001/REC-SVG-20010904/DTD/svg10.dtd">
<svg version="1.0" xmlns="http://www.w3.org/2000/svg"
 width="512.000000pt" height="512.000000pt" viewBox="0 0 512.000000 512.000000"
 preserveAspectRatio="xMidYMid meet">
<metadata>
Created by potrace 1.14, written by Peter Selinger 2001-2017
</metadata>
<g transform="translate(0.000000,512.000000) scale(0.100000,-0.100000)"
fill="#000000" stroke="none">
<path d="M0 2560 l0 -2560 2560 0 2560 0 0 2560 0 2560 -2560 0 -2560 0 0
-2560z m2252 1772 c115 -56 195 -157 223 -277 l12 -50 73 0 73 0 13 52 c33
127 110 223 224 277 l65 31 595 3 595 3 18 -22 c9 -12 17 -31 17 -43 0 -32
-28 -66 -54 -66 -46 0 -123 -30 -155 -62 -72 -70 -65 51 -71 -1403 l-5 -1310
-23 -80 c-107 -370 -373 -635 -723 -720 -162 -40 -440 -25 -481 26 -10 12 -18
30 -18 40 0 17 -8 19 -70 19 -62 0 -70 -2 -70 -19 0 -63 -123 -97 -320 -88
-143 6 -241 32 -374 95 -264 127 -443 347 -529 650 -22 77 -22 80 -27 1387 -6
1465 2 1335 -78 1407 -36 33 -105 58 -157 58 -18 0 -45 39 -45 65 0 11 7 31
16 43 l16 23 597 -3 596 -3 67 -33z"/>
<path d="M1310 4235 c0 -3 12 -29 28 -58 l27 -52 5 -1305 6 -1305 26 -96 c91
-334 344 -570 672 -628 66 -12 196 -14 245 -5 l31 7 0 1606 c0 1794 6 1658
-71 1745 -22 24 -61 55 -87 68 -47 23 -50 23 -464 26 -230 2 -418 1 -418 -3z"/>
<path d="M2987 4229 c-83 -20 -151 -72 -194 -152 -17 -30 -18 -125 -21 -1659
l-2 -1627 36 -7 c20 -4 87 -4 148 -2 351 16 649 256 758 610 l23 73 5 1315 5
1315 33 69 c17 37 32 70 32 72 0 8 -787 2 -823 -7z"/>
<path d="M2490 2375 l0 -1485 70 0 70 0 0 1485 0 1485 -70 0 -70 0 0 -1485z"/>
</g>
</svg>
